C:\GBW_MyPrograms\PredSimResults\gait1018_esmac\gait1018_esmac_v36.mot
version=1
nRows=14
nColumns=29
inDegrees=yes
endheader
                time	         pelvis_tilt	           pelvis_tx	           pelvis_ty	       hip_flexion_l	       hip_flexion_r	        knee_angle_l	        knee_angle_r	       ankle_angle_l	       ankle_angle_r	    lumbar_extension	hamstrings_r/activation	bifemsh_r/activation	glut_max_r/activation	iliopsoas_r/activation	rect_fem_r/activation	  vasti_r/activation	gastroc_r/activation	 soleus_r/activation	tib_ant_r/activation	hamstrings_l/activation	bifemsh_l/activation	glut_max_l/activation	iliopsoas_l/activation	rect_fem_l/activation	  vasti_l/activation	gastroc_l/activation	 soleus_l/activation	tib_ant_l/activation	
          0.00000000	         -7.92019337	          0.00000000	          0.89604408	         -9.10152533	         28.59968341	        -10.31503422	         -1.29586720	          3.97718215	          5.26962893	          1.64480084	          0.07284413	          0.01131436	          0.02450579	          0.01378549	          0.01617228	          0.01999792	          0.01175294	          0.02627726	          0.20116480	          0.01084708	          0.09176125	          0.01302567	          0.11287860	          0.01383440	          0.01107381	          0.21861731	          0.31507312	          0.01652346	
          0.01047738	         -7.88697801	          0.01624879	          0.89556015	         -8.98597403	         27.67744842	        -12.36810611	         -0.88107490	          2.89393745	          4.62503206	          1.97057497	          0.06578111	          0.01001989	          0.05277342	          0.01173695	          0.01377056	          0.03872090	          0.01000661	          0.02237273	          0.25220033	          0.01000656	          0.07812022	          0.01109813	          0.09609804	          0.01178166	          0.01833444	          0.18611718	          0.26823426	          0.01406710	
          0.02095476	         -7.85041562	          0.03272273	          0.89504169	         -8.68552054	         26.72268691	        -14.74226029	         -0.92566407	          1.61166316	          3.73671008	          2.32208305	          0.07001132	          0.01001798	          0.04507420	          0.01000366	          0.01172628	          0.03296575	          0.01809826	          0.01904752	          0.30494319	          0.02074292	          0.06650711	          0.05001950	          0.08181209	          0.01003774	          0.01563849	          0.15844853	          0.22835789	          0.01197593	
          0.03143213	         -7.81504090	          0.04918305	          0.89463889	         -8.14629674	         25.76360610	        -17.46502687	         -1.08253904	          0.00222107	          2.69412507	          2.67455734	          0.06595873	          0.02735920	          0.10203025	          0.01000144	          0.01000148	          0.02806554	          0.01540797	          0.01621598	          0.44836819	          0.01767355	          0.05662047	          0.04258498	          0.06964995	          0.01000305	          0.02258065	          0.13489315	          0.19440959	          0.01019571	
          0.04190951	         -7.78633817	          0.06533685	          0.89458555	         -7.31511477	         24.87323078	        -20.52792949	         -1.28755493	         -2.13242710	          1.48956556	          2.99758227	          0.06558664	          0.02329483	          0.12722538	          0.01000158	          0.01000340	          0.07292586	          0.01311831	          0.01380576	          0.50780109	          0.01504820	          0.04820372	          0.03625448	          0.05929594	          0.01035792	          0.01922445	          0.11483959	          0.16550812	          0.01000152	
          0.05238689	         -7.76657838	          0.08098810	          0.89499222	         -6.17348704	         24.08142546	        -23.90422860	         -1.63386381	         -4.82378458	          0.57770949	          3.26968660	          0.07138743	          0.01983443	          0.15451535	          0.01000177	          0.01000382	          0.13666380	          0.01117356	          0.01175537	          0.57752338	          0.01281314	          0.04103850	          0.03086497	          0.05048136	          0.04832101	          0.01636677	          0.09776725	          0.14090323	          0.23940517	
          0.06286427	         -7.75758791	          0.09601907	          0.89576726	         -4.79446985	         23.35164939	        -27.46000362	         -2.04662492	         -7.46038417	          0.03143007	          3.47862021	          0.06586961	          0.01688868	          0.16888830	          0.01000117	          0.01000288	          0.16727319	          0.01000348	          0.01000923	          0.61592987	          0.01093455	          0.03493982	          0.02627663	          0.04297783	          0.10843660	          0.01393377	          0.08323305	          0.11995621	          0.20381460	
          0.07334165	         -7.75999315	          0.11042845	          0.89686211	         -3.29142367	         22.64914226	        -30.95815986	         -2.45445513	         -8.71424515	         -0.20053927	          3.62555421	          0.06389202	          0.01438213	          0.16237699	          0.01000169	          0.01000401	          0.17191947	          0.01001298	          0.01004632	          0.60601162	          0.01002133	          0.02975416	          0.02237039	          0.03659514	          0.14545569	          0.01186247	          0.07085958	          0.10212325	          0.22075906	
          0.08381903	         -7.77238538	          0.12430506	          0.89831286	         -1.71814968	         21.95374911	        -34.24223559	         -2.82375084	         -9.21830368	         -0.19107051	          3.72089098	          0.06439807	          0.01225067	          0.15444251	          0.01000202	          0.01000463	          0.16807141	          0.01001515	          0.01309998	          0.58111655	          0.02764437	          0.05329766	          0.01904486	          0.04038557	          0.19348121	          0.01009916	          0.06032606	          0.08694146	          0.25835957	
          0.09429640	         -7.79304497	          0.13773932	          0.90006992	         -0.10138083	         21.25211957	        -37.25209032	         -3.13410212	         -9.27835071	         -0.01136136	          3.77440857	          0.06460069	          0.01044329	          0.14743111	          0.01000195	          0.01000453	          0.15914450	          0.01001966	          0.01618243	          0.54276903	          0.03380639	          0.05841303	          0.01621374	          0.04378201	          0.23086788	          0.01000061	          0.05135969	          0.07401664	          0.25857464	
          0.10477378	         -7.82019898	          0.15082433	          0.90204526	          1.53470836	         20.52754357	        -39.94428354	         -3.36091008	         -9.03416825	          0.27325960	          3.79584379	          0.06603382	          0.01003766	          0.14109395	          0.01000192	          0.01000441	          0.14967410	          0.01414703	          0.01621461	          0.50195435	          0.03084816	          0.08306226	          0.01380354	          0.04345141	          0.25681001	          0.01000074	          0.04375833	          0.06301326	          0.25086951	
          0.11525116	         -7.85214901	          0.16363922	          0.90414133	          3.17472065	         19.76686207	        -42.29809391	         -3.48618621	         -8.60463543	          0.60769489	          3.79304266	          0.06722064	          0.01004220	          0.13356599	          0.01000189	          0.01000448	          0.14128094	          0.02330584	          0.01381183	          0.46428956	          0.02626632	          0.09894953	          0.01175174	          0.04306433	          0.27065009	          0.01000080	          0.03725760	          0.05364566	          0.23039135	
          0.12572854	         -7.88688324	          0.17624436	          0.90626431	          4.80938493	         18.96427173	        -44.31434130	         -3.50485820	         -8.02625515	          0.94391718	          3.77097853	          0.06701528	          0.01003372	          0.12524600	          0.01000178	          0.01000450	          0.13402982	          0.03319290	          0.01176195	          0.43403763	          0.02236327	          0.12149526	          0.01000534	          0.04219373	          0.27344596	          0.01000089	          0.03171987	          0.04567065	          0.21162890	
          0.13620592	         -7.92249488	          0.18868225	          0.90833069	          6.43626858	         18.12041278	        -46.01163930	         -3.42269509	         -7.34867005	          1.24736638	          3.73244899	          0.06599921	          0.01002695	          0.11530927	          0.01000182	          0.01000517	          0.12865426	          0.04456391	          0.01002067	          0.41107101	          0.01903977	          0.14502684	          0.01000154	          0.04318350	          0.26590504	          0.01000103	          0.02700493	          0.03888122	          0.19196324	
